<svg viewBox="0 0 6000 3160"><g transform="translate(0,3160) scale(1,-1)"><path d="M23 1133 c-2 -6 -3 -24 -1 -40 3 -24 10 -30 57 -45 30 -10 63 -26 74
-35 32 -29 243 -479 363 -776 25 -61 53 -118 62 -124 20 -17 73 -17 95 0 9 6
59 113 112 236 106 247 232 521 272 591 42 73 71 98 130 111 44 10 55 17 60
37 13 54 5 56 -223 56 l-209 0 0 -39 c0 -38 1 -40 48 -53 27 -7 51 -20 54 -28
8 -22 -123 -367 -175 -461 -10 -16 -63 100 -142 311 -57 153 -56 166 12 180
29 7 43 34 34 69 l-5 22 -307 0 c-224 0 -308 -3 -311 -12z" fill="black"/></g></svg>