<svg viewBox="0 0 6000 3160"><g transform="translate(0,3160) scale(1,-1)"><path d="M2595 1173 c-38 -20 -122 -55 -185 -77 -105 -38 -115 -44 -118 -68
-2 -14 3 -31 10 -37 7 -5 29 -23 48 -40 l35 -29 3 -254 c2 -139 1 -286 -3
-325 -9 -94 -24 -114 -93 -121 -44 -4 -53 -8 -58 -27 -3 -13 -4 -32 -2 -42 3
-17 21 -18 333 -18 l330 0 0 40 0 40 -62 7 c-76 8 -101 21 -110 56 -5 15 -8
164 -8 332 0 328 3 350 50 350 13 0 45 -16 71 -36 69 -53 106 -66 154 -55 84
19 121 67 122 158 1 39 -5 62 -19 81 -71 95 -165 89 -311 -21 -46 -35 -55 -38
-67 -26 -11 11 -12 27 -6 71 12 90 -6 97 -114 41z" fill="black"/></g></svg>