<svg viewBox="0 0 6000 3160"><g transform="translate(0,3160) scale(1,-1)"><path d="M1658 1170 c-117 -21 -209 -67 -287 -143 -260 -253 -213 -718 89
-865 250 -123 531 -54 669 164 38 59 39 88 5 110 -26 17 -26 17 -65 -28 -56
-67 -115 -92 -208 -91 -106 1 -177 30 -246 98 -67 67 -97 141 -99 240 l-1 70
296 5 c220 4 300 8 311 18 47 39 18 196 -56 295 -28 38 -110 91 -171 110 -63
20 -175 28 -237 17z m163 -148 c54 -60 51 -144 -6 -168 -41 -17 -236 -20 -266
-4 -56 30 16 159 111 199 14 6 49 9 79 7 46 -2 59 -8 82 -34z" fill="black"/></g></svg>