<svg viewBox="0 0 6000 3160"><g transform="translate(0,3160) scale(1,-1)"><path d="M4950 1164 c-199 -43 -356 -200 -405 -405 -59 -253 43 -502 249 -602
242 -118 524 -46 663 170 38 60 40 76 13 103 -28 28 -41 25 -69 -16 -51 -74
-165 -113 -275 -93 -114 20 -200 84 -250 184 -28 56 -50 166 -42 201 l6 24
295 0 c287 0 296 1 316 21 19 19 21 30 17 93 -6 88 -33 150 -92 214 -96 103
-257 143 -426 106z m166 -120 c46 -22 66 -62 62 -127 -3 -50 -5 -53 -38 -64
-19 -7 -83 -12 -141 -12 -88 -1 -111 2 -128 17 -19 15 -20 21 -11 55 21 74
114 147 188 147 19 0 49 -7 68 -16z" fill="black"/></g></svg>