<svg viewBox="0 0 6000 3160"><g transform="translate(0,3160) scale(1,-1)"><path d="M925 3048 c-27 -27 -75 -61 -106 -75 -54 -26 -55 -28 -66 -84 -10
-52 -303 -847 -445 -1208 -82 -207 -108 -236 -228 -250 -54 -6 -55 -7 -58 -40
-2 -18 1 -38 6 -43 11 -11 566 -13 583 -2 13 8 11 60 -3 71 -7 5 -44 15 -82
22 -99 17 -110 25 -102 71 10 60 360 1126 375 1143 11 11 35 -55 167 -465 235
-729 231 -716 202 -735 -7 -4 -42 -12 -77 -18 -73 -12 -91 -29 -76 -71 6 -15
13 -27 18 -26 4 1 178 2 387 2 l380 0 0 39 0 40 -57 11 c-162 32 -148 10 -313
490 -48 140 -144 417 -213 615 -69 198 -137 401 -152 450 -15 50 -32 96 -37
103 -19 22 -52 9 -103 -40z" fill="black"/></g></svg>