<svg viewBox="0 0 6000 3160"><g transform="translate(0,3160) scale(1,-1)"><path d="M3470 1894 c-41 -19 -126 -50 -187 -70 l-113 -37 0 -33 c0 -26 7 -36
33 -53 75 -46 69 27 68 -811 -1 -846 -8 -781 80 -740 l49 23 83 -26 c119 -39
206 -51 317 -44 268 18 449 138 528 349 76 204 32 459 -102 593 -132 132 -338
167 -531 90 -75 -30 -82 -31 -90 -3 -4 11 -6 195 -4 407 l4 386 -30 2 c-16 1
-64 -14 -105 -33z m335 -891 c132 -44 215 -205 215 -413 0 -157 -35 -268 -105
-328 -42 -38 -70 -46 -135 -40 -65 7 -111 42 -147 115 l-28 58 -3 277 c-2 193
0 284 8 298 25 48 111 62 195 33z" fill="black"/></g></svg>