<svg viewBox="0 0 6000 3160"><g transform="translate(0,3160) scale(1,-1)"><path d="M2790 3065 c-41 -19 -127 -51 -190 -72 -63 -20 -118 -42 -122 -48 -4
-5 -8 -20 -8 -33 0 -25 51 -62 88 -62 l22 0 -2 -217 -3 -218 -120 3 c-176 5
-303 -27 -418 -107 -99 -68 -178 -171 -217 -284 -30 -88 -38 -250 -16 -337 58
-229 244 -379 468 -380 77 0 144 22 232 75 32 19 65 35 72 35 16 0 16 -5 14
-73 -1 -37 2 -49 16 -54 10 -3 74 8 143 26 69 17 174 38 233 46 59 7 112 16
118 20 12 7 13 65 1 83 -6 11 -16 11 -47 3 -64 -18 -92 -14 -111 16 -17 25
-18 79 -19 818 l-2 790 -28 2 c-16 1 -63 -14 -104 -32z m-300 -785 c22 -11 51
-37 65 -58 l25 -38 -2 -329 -3 -328 -28 -20 c-19 -15 -47 -22 -92 -25 -55 -4
-73 0 -120 22 -114 56 -185 205 -185 391 0 279 171 471 340 385z" fill="black"/></g></svg>